<svg xmlns="http://www.w3.org/2000/svg" width="1200" height="760" viewBox="0 0 1200 760">
<style>text{font-family:DejaVu Sans,Arial,sans-serif;fill:#17212b} .title{font-size:28px;font-weight:700} .subtitle{font-size:15px;fill:#52606d} .axis{font-size:13px;fill:#52606d} .label{font-size:14px;font-weight:600} .small{font-size:12px;fill:#52606d} .grid{stroke:#d9e2ec;stroke-width:1} .axisline{stroke:#52606d;stroke-width:1.5} </style>
<rect width="100%" height="100%" fill="#f8fafc"/>
<text x="60" y="52" class="title">Mapa por corredor</text>
<text x="60" y="80" class="subtitle">Demanda media agregada por corredor; el punto representa el centroide de sus estaciones</text>
<line x1="84.5" y1="135" x2="84.5" y2="625" class="grid"/><text x="84.5" y="653" text-anchor="middle" class="axis">-74.190</text>
<line x1="299.8" y1="135" x2="299.8" y2="625" class="grid"/><text x="299.8" y="653" text-anchor="middle" class="axis">-74.160</text>
<line x1="515.1" y1="135" x2="515.1" y2="625" class="grid"/><text x="515.1" y="653" text-anchor="middle" class="axis">-74.130</text>
<line x1="730.3" y1="135" x2="730.3" y2="625" class="grid"/><text x="730.3" y="653" text-anchor="middle" class="axis">-74.100</text>
<line x1="945.6" y1="135" x2="945.6" y2="625" class="grid"/><text x="945.6" y="653" text-anchor="middle" class="axis">-74.070</text>
<line x1="1160.9" y1="135" x2="1160.9" y2="625" class="grid"/><text x="1160.9" y="653" text-anchor="middle" class="axis">-74.040</text>
<line x1="120" y1="632.2" x2="1120" y2="632.2" class="grid"/><text x="104" y="637.2" text-anchor="end" class="axis">4.510</text>
<line x1="120" y1="530.8" x2="1120" y2="530.8" class="grid"/><text x="104" y="535.8" text-anchor="end" class="axis">4.562</text>
<line x1="120" y1="429.3" x2="1120" y2="429.3" class="grid"/><text x="104" y="434.3" text-anchor="end" class="axis">4.614</text>
<line x1="120" y1="327.8" x2="1120" y2="327.8" class="grid"/><text x="104" y="332.8" text-anchor="end" class="axis">4.666</text>
<line x1="120" y1="226.4" x2="1120" y2="226.4" class="grid"/><text x="104" y="231.4" text-anchor="end" class="axis">4.718</text>
<line x1="120" y1="124.9" x2="1120" y2="124.9" class="grid"/><text x="104" y="129.9" text-anchor="end" class="axis">4.770</text>
<circle cx="796.9" cy="466.4" r="12.0" fill="#0e7490" fill-opacity="0.88" stroke="#fff" stroke-width="2"/>
<text x="815.9" y="471.4" class="label">Caracas (2)</text>
<circle cx="771.4" cy="170.1" r="14.3" fill="#246d84" fill-opacity="0.88" stroke="#fff" stroke-width="2"/>
<text x="792.7" y="175.1" class="label">Suba (1)</text>
<circle cx="1033.9" cy="292.8" r="17.7" fill="#456373" fill-opacity="0.88" stroke="#fff" stroke-width="2"/>
<text x="1058.6" y="297.8" class="label">Autonorte (1)</text>
<circle cx="951.2" cy="426.9" r="21.8" fill="#6e565e" fill-opacity="0.88" stroke="#fff" stroke-width="2"/>
<text x="980.0" y="431.9" class="label">Carrera 7-10 (1)</text>
<circle cx="770.9" cy="372.5" r="25.3" fill="#904c4d" fill-opacity="0.88" stroke="#fff" stroke-width="2"/>
<text x="803.2" y="377.5" class="label">Calle 26 (2)</text>
<circle cx="846.3" cy="392.3" r="28.9" fill="#b3423b" fill-opacity="0.88" stroke="#fff" stroke-width="2"/>
<text x="882.1" y="397.3" class="label">NQS (3)</text>
<circle cx="304.0" cy="397.4" r="34.0" fill="#e53322" fill-opacity="0.88" stroke="#fff" stroke-width="2"/>
<text x="345.0" y="402.4" class="label">Américas (2)</text>
<text x="60" y="710" class="small">El numero entre parentesis es la cantidad de estaciones del corredor.</text>
</svg>